<?xml version="1.0" encoding="utf-8"?>
<!-- Generator: Adobe Illustrator 27.5.0, SVG Export Plug-In . SVG Version: 6.00 Build 0)  -->
<svg version="1.1" xmlns="http://www.w3.org/2000/svg" xmlns:xlink="http://www.w3.org/1999/xlink" x="0px" y="0px"
	 viewBox="0 0 500 500" style="enable-background:new 0 0 500 500;" xml:space="preserve">
<g id="BACKGROUND">
	<rect x="0" fill="none" width="499.999" height="500"/>
</g>
<g id="OBJECTS">
	<g>
		<g>
			<path style="fill:#6636CE;" d="M347.355,160.641h-91.078v-9.173c15.974-3.121,27.17-17.573,26.155-33.951
				c-1.012-16.302-14.069-29.358-30.369-30.369c-9.074-0.568-17.71,2.543-24.313,8.749c-6.51,6.119-10.245,14.751-10.245,23.683
				c0,3.466,2.811,6.277,6.277,6.277c3.466,0,6.277-2.811,6.277-6.277c0-5.562,2.233-10.724,6.288-14.535
				c4.052-3.807,9.366-5.711,14.937-5.367c9.829,0.61,18.007,8.788,18.618,18.618c0.634,10.228-6.47,19.231-16.525,20.942
				c-5.594,0.951-9.654,5.754-9.654,11.421v9.983h-91.077c-13.898,0-25.206,11.307-25.206,25.205
				c0,13.898,11.307,25.206,25.206,25.206h194.709c13.898,0,25.205-11.307,25.205-25.206
				C372.56,171.948,361.253,160.641,347.355,160.641z M347.355,198.498H152.646c-6.976,0-12.652-5.676-12.652-12.652
				c0-6.976,5.676-12.651,12.652-12.651h194.709c6.976,0,12.651,5.675,12.651,12.651
				C360.006,192.822,354.331,198.498,347.355,198.498z"/>
		</g>
		<path style="fill:#4D378C;" d="M152.646,211.052h194.708c7.419,0,14.097-3.223,18.714-8.341l-8.898-8.898
			c-2.321,2.855-5.858,4.685-9.816,4.685H152.646c-3.772,0-7.155-1.669-9.475-4.296l-8.529,9.261
			C139.221,208.141,145.599,211.052,152.646,211.052z"/>
		<g>
			<rect x="159.266" y="188.779" style="fill:#FFC043;" width="181.469" height="153.609"/>
		</g>
		<g>
			<rect x="159.266" y="333.182" style="fill:#FFA840;" width="181.469" height="9.206"/>
		</g>
		<g>
			<polygon style="fill:#FFA840;" points="159.266,239.791 340.735,247.568 340.735,207.316 159.266,207.316 			"/>
		</g>
		<g>
			<rect x="179.778" y="260.337" style="fill:#4D378C;" width="46.281" height="82.05"/>
		</g>
		<g>
			
				<rect x="165.127" y="287.542" transform="matrix(-1.836970e-16 1 -1 -1.836970e-16 507.3233 101.4871)" style="fill:#8F78FF;" width="75.582" height="33.727"/>
		</g>
		<g>
			<rect x="247.181" y="260.337" style="fill:#4D378C;" width="75.337" height="51.382"/>
		</g>
		<g>
			
				<rect x="265.435" y="254.636" transform="matrix(-1.836970e-16 1 -1 -1.836970e-16 570.8775 1.179)" style="fill:#BDE9FF;" width="38.828" height="62.784"/>
		</g>
		<g>
			<g>
				<path style="fill:#FF6224;" d="M166.353,237.61h-1.239c-7.414,0-13.425-6.011-13.425-13.425v-39.231h28.089v39.231
					C179.778,231.6,173.767,237.61,166.353,237.61z"/>
			</g>
			<g>
				<path style="fill:#FFFFFF;" d="M193.822,237.61L193.822,237.61c-7.757,0-14.045-6.288-14.045-14.045v-38.611h28.089v38.611
					C207.867,231.322,201.579,237.61,193.822,237.61z"/>
			</g>
			<g>
				<path style="fill:#FF6224;" d="M222.531,237.61h-1.239c-7.414,0-13.425-6.011-13.425-13.425v-39.231h28.089v39.231
					C235.956,231.6,229.945,237.61,222.531,237.61z"/>
			</g>
			<g>
				<path style="fill:#FFFFFF;" d="M250,237.61L250,237.61c-7.757,0-14.044-6.288-14.044-14.045v-38.611h28.089v38.611
					C264.045,231.322,257.757,237.61,250,237.61z"/>
			</g>
			<g>
				<path style="fill:#FF6224;" d="M278.709,237.61h-1.239c-7.414,0-13.425-6.011-13.425-13.425v-39.231h28.089v39.231
					C292.134,231.6,286.124,237.61,278.709,237.61z"/>
			</g>
			<g>
				<path style="fill:#FFFFFF;" d="M306.179,237.61L306.179,237.61c-7.757,0-14.045-6.288-14.045-14.045v-38.611h28.089v38.611
					C320.223,231.322,313.935,237.61,306.179,237.61z"/>
			</g>
			<g>
				<path style="fill:#FF6224;" d="M334.887,237.61h-1.239c-7.414,0-13.425-6.011-13.425-13.425v-39.231h28.089v39.231
					C348.312,231.6,342.302,237.61,334.887,237.61z"/>
			</g>
		</g>
		<g>
			<rect x="151.689" y="184.954" style="fill:#B74D48;" width="28.089" height="27.648"/>
		</g>
		<g>
			<rect x="179.778" y="184.954" style="fill:#D5DADB;" width="28.089" height="27.648"/>
		</g>
		<g>
			<rect x="235.955" y="184.954" style="fill:#D5DADB;" width="28.089" height="27.648"/>
		</g>
		<g>
			<rect x="292.134" y="184.954" style="fill:#D5DADB;" width="28.089" height="27.648"/>
		</g>
		<g>
			<rect x="207.867" y="184.954" style="fill:#B74D48;" width="28.089" height="27.648"/>
		</g>
		<g>
			<rect x="264.045" y="184.954" style="fill:#B74D48;" width="28.089" height="27.648"/>
		</g>
		<g>
			<rect x="320.223" y="184.954" style="fill:#B74D48;" width="28.089" height="27.648"/>
		</g>
		<g>
			<path style="fill:#8F78FF;" d="M350.078,166.514H197.106c-0.867,0-1.569-0.702-1.569-1.569c0-0.867,0.702-1.569,1.569-1.569
				h152.971c0.866,0,1.569,0.702,1.569,1.569C351.647,165.811,350.944,166.514,350.078,166.514z"/>
		</g>
		<g>
			<path style="fill:#8F78FF;" d="M186.055,166.514h-34.366c-0.867,0-1.569-0.702-1.569-1.569c0-0.867,0.702-1.569,1.569-1.569
				h34.366c0.867,0,1.569,0.702,1.569,1.569C187.624,165.811,186.921,166.514,186.055,166.514z"/>
		</g>
		<g>
			<path style="fill:#8F78FF;" d="M276.653,130.371c-0.153,0-0.309-0.023-0.464-0.07c-0.828-0.256-1.291-1.136-1.035-1.964
				c0.779-2.514,1.173-5.137,1.173-7.796c0-3.738-0.767-7.35-2.28-10.735c-0.354-0.791,0.001-1.719,0.792-2.073
				c0.795-0.354,1.719,0.002,2.073,0.792c1.695,3.791,2.554,7.834,2.554,12.016c0,2.974-0.442,5.909-1.314,8.725
				C277.943,129.939,277.323,130.371,276.653,130.371z"/>
		</g>
		<g>
			<path style="fill:#8F78FF;" d="M222.339,118.483c-0.067,0-0.135-0.004-0.204-0.013c-0.859-0.111-1.466-0.898-1.354-1.758
				c1.898-14.615,14.459-25.636,29.218-25.636c7.864,0,15.258,3.06,20.821,8.616c0.614,0.612,0.614,1.606,0.002,2.22
				c-0.613,0.614-1.608,0.613-2.219,0.001c-4.971-4.965-11.578-7.699-18.604-7.699c-13.187,0-24.41,9.845-26.106,22.902
				C223.79,117.907,223.115,118.483,222.339,118.483z"/>
		</g>
	</g>
</g>
<g id="TEXTS">
	<g>
		<g>
			<text transform="matrix(1 0 0 1 107.2613 390.6895)"><tspan x="0" y="0" style="fill:#3C2E6D; font-family:'Outfit-Black'; font-size:41.422px;">cloth</tspan><tspan x="144.644" y="0" style="fill:#8F78FF; font-family:'Outfit-Black'; font-size:41.422px;">store</tspan></text>
		</g>
		
			<text transform="matrix(1 0 0 1 160.3915 409.3115)" style="fill:#4D378C; font-family:'Lato-Semibold'; font-size:13px; letter-spacing:1;">your tagline goes here</text>
	</g>
</g>
</svg>
